<svg id="visual" viewBox="0 0 960 540" width="960" height="540" xmlns="http://www.w3.org/2000/svg" xmlns:xlink="http://www.w3.org/1999/xlink" version="1.1"><rect x="0" y="0" width="960" height="540" fill="#fff"></rect><path d="M0 315L16 309.3C32 303.7 64 292.3 96 295.2C128 298 160 315 192 323.7C224 332.3 256 332.7 288 318.8C320 305 352 277 384 260C416 243 448 237 480 247.3C512 257.7 544 284.3 576 286.2C608 288 640 265 672 255.5C704 246 736 250 768 261.3C800 272.7 832 291.3 864 300.7C896 310 928 310 944 310L960 310L960 541L944 541C928 541 896 541 864 541C832 541 800 541 768 541C736 541 704 541 672 541C640 541 608 541 576 541C544 541 512 541 480 541C448 541 416 541 384 541C352 541 320 541 288 541C256 541 224 541 192 541C160 541 128 541 96 541C64 541 32 541 16 541L0 541Z" fill="#f4f4f5"></path><path d="M0 275L16 285.8C32 296.7 64 318.3 96 331.2C128 344 160 348 192 349.5C224 351 256 350 288 344.3C320 338.7 352 328.3 384 326.8C416 325.3 448 332.7 480 325.8C512 319 544 298 576 298.7C608 299.3 640 321.7 672 333.3C704 345 736 346 768 337.3C800 328.7 832 310.3 864 307C896 303.7 928 315.3 944 321.2L960 327L960 541L944 541C928 541 896 541 864 541C832 541 800 541 768 541C736 541 704 541 672 541C640 541 608 541 576 541C544 541 512 541 480 541C448 541 416 541 384 541C352 541 320 541 288 541C256 541 224 541 192 541C160 541 128 541 96 541C64 541 32 541 16 541L0 541Z" fill="#cde1f8"></path><path d="M0 370L16 365.7C32 361.3 64 352.7 96 350.7C128 348.7 160 353.3 192 350C224 346.7 256 335.3 288 337.5C320 339.7 352 355.3 384 364.3C416 373.3 448 375.7 480 377.3C512 379 544 380 576 372.7C608 365.3 640 349.7 672 350.8C704 352 736 370 768 369.7C800 369.3 832 350.7 864 345.3C896 340 928 348 944 352L960 356L960 541L944 541C928 541 896 541 864 541C832 541 800 541 768 541C736 541 704 541 672 541C640 541 608 541 576 541C544 541 512 541 480 541C448 541 416 541 384 541C352 541 320 541 288 541C256 541 224 541 192 541C160 541 128 541 96 541C64 541 32 541 16 541L0 541Z" fill="#8ad5f0"></path><path d="M0 433L16 427.5C32 422 64 411 96 401.2C128 391.3 160 382.7 192 383.5C224 384.3 256 394.7 288 402.3C320 410 352 415 384 421.8C416 428.7 448 437.3 480 432C512 426.7 544 407.3 576 398.2C608 389 640 390 672 397.2C704 404.3 736 417.7 768 424C800 430.3 832 429.7 864 424C896 418.3 928 407.7 944 402.3L960 397L960 541L944 541C928 541 896 541 864 541C832 541 800 541 768 541C736 541 704 541 672 541C640 541 608 541 576 541C544 541 512 541 480 541C448 541 416 541 384 541C352 541 320 541 288 541C256 541 224 541 192 541C160 541 128 541 96 541C64 541 32 541 16 541L0 541Z" fill="#22c9d1"></path><path d="M0 421L16 425C32 429 64 437 96 448.3C128 459.7 160 474.3 192 476.2C224 478 256 467 288 459.7C320 452.3 352 448.7 384 450.8C416 453 448 461 480 467.3C512 473.7 544 478.3 576 480.5C608 482.7 640 482.3 672 482.8C704 483.3 736 484.7 768 479.2C800 473.7 832 461.3 864 454.3C896 447.3 928 445.7 944 444.8L960 444L960 541L944 541C928 541 896 541 864 541C832 541 800 541 768 541C736 541 704 541 672 541C640 541 608 541 576 541C544 541 512 541 480 541C448 541 416 541 384 541C352 541 320 541 288 541C256 541 224 541 192 541C160 541 128 541 96 541C64 541 32 541 16 541L0 541Z" fill="#00b897"></path><path d="M0 469L16 477.8C32 486.7 64 504.3 96 513.5C128 522.7 160 523.3 192 516.2C224 509 256 494 288 490.3C320 486.7 352 494.3 384 492.7C416 491 448 480 480 481.7C512 483.3 544 497.7 576 498.2C608 498.7 640 485.3 672 476C704 466.7 736 461.3 768 468.8C800 476.3 832 496.7 864 501C896 505.3 928 493.7 944 487.8L960 482L960 541L944 541C928 541 896 541 864 541C832 541 800 541 768 541C736 541 704 541 672 541C640 541 608 541 576 541C544 541 512 541 480 541C448 541 416 541 384 541C352 541 320 541 288 541C256 541 224 541 192 541C160 541 128 541 96 541C64 541 32 541 16 541L0 541Z" fill="#16a34a"></path></svg>