<svg id="visual" viewBox="0 0 960 540" width="960" height="540" xmlns="http://www.w3.org/2000/svg" xmlns:xlink="http://www.w3.org/1999/xlink" version="1.1"><rect x="0" y="0" width="960" height="540" fill="#fff"></rect><path d="M0 289L17.8 287.3C35.7 285.7 71.3 282.3 106.8 285.7C142.3 289 177.7 299 213.2 306.7C248.7 314.3 284.3 319.7 320 314.7C355.7 309.7 391.3 294.3 426.8 302.7C462.3 311 497.7 343 533.2 338.8C568.7 334.7 604.3 294.3 640 277.2C675.7 260 711.3 266 746.8 263.8C782.3 261.7 817.7 251.3 853.2 252.3C888.7 253.3 924.3 265.7 942.2 271.8L960 278L960 541L942.2 541C924.3 541 888.7 541 853.2 541C817.7 541 782.3 541 746.8 541C711.3 541 675.7 541 640 541C604.3 541 568.7 541 533.2 541C497.7 541 462.3 541 426.8 541C391.3 541 355.7 541 320 541C284.3 541 248.7 541 213.2 541C177.7 541 142.3 541 106.8 541C71.3 541 35.7 541 17.8 541L0 541Z" fill="#ffffff"></path><path d="M0 356L17.8 364.2C35.7 372.3 71.3 388.7 106.8 389.8C142.3 391 177.7 377 213.2 359.8C248.7 342.7 284.3 322.3 320 327.3C355.7 332.3 391.3 362.7 426.8 376C462.3 389.3 497.7 385.7 533.2 367.8C568.7 350 604.3 318 640 317.8C675.7 317.7 711.3 349.3 746.8 354.3C782.3 359.3 817.7 337.7 853.2 333C888.7 328.3 924.3 340.7 942.2 346.8L960 353L960 541L942.2 541C924.3 541 888.7 541 853.2 541C817.7 541 782.3 541 746.8 541C711.3 541 675.7 541 640 541C604.3 541 568.7 541 533.2 541C497.7 541 462.3 541 426.8 541C391.3 541 355.7 541 320 541C284.3 541 248.7 541 213.2 541C177.7 541 142.3 541 106.8 541C71.3 541 35.7 541 17.8 541L0 541Z" fill="#def0df"></path><path d="M0 423L17.8 422.8C35.7 422.7 71.3 422.3 106.8 416.8C142.3 411.3 177.7 400.7 213.2 391.3C248.7 382 284.3 374 320 372.5C355.7 371 391.3 376 426.8 366.3C462.3 356.7 497.7 332.3 533.2 330.8C568.7 329.3 604.3 350.7 640 369.2C675.7 387.7 711.3 403.3 746.8 398.7C782.3 394 817.7 369 853.2 370.3C888.7 371.7 924.3 399.3 942.2 413.2L960 427L960 541L942.2 541C924.3 541 888.7 541 853.2 541C817.7 541 782.3 541 746.8 541C711.3 541 675.7 541 640 541C604.3 541 568.7 541 533.2 541C497.7 541 462.3 541 426.8 541C391.3 541 355.7 541 320 541C284.3 541 248.7 541 213.2 541C177.7 541 142.3 541 106.8 541C71.3 541 35.7 541 17.8 541L0 541Z" fill="#bde1c0"></path><path d="M0 407L17.8 409.3C35.7 411.7 71.3 416.3 106.8 419.7C142.3 423 177.7 425 213.2 427.7C248.7 430.3 284.3 433.7 320 428.3C355.7 423 391.3 409 426.8 394C462.3 379 497.7 363 533.2 361.7C568.7 360.3 604.3 373.7 640 391.2C675.7 408.7 711.3 430.3 746.8 433.7C782.3 437 817.7 422 853.2 415C888.7 408 924.3 409 942.2 409.5L960 410L960 541L942.2 541C924.3 541 888.7 541 853.2 541C817.7 541 782.3 541 746.8 541C711.3 541 675.7 541 640 541C604.3 541 568.7 541 533.2 541C497.7 541 462.3 541 426.8 541C391.3 541 355.7 541 320 541C284.3 541 248.7 541 213.2 541C177.7 541 142.3 541 106.8 541C71.3 541 35.7 541 17.8 541L0 541Z" fill="#9bd2a2"></path><path d="M0 417L17.8 422.2C35.7 427.3 71.3 437.7 106.8 435.5C142.3 433.3 177.7 418.7 213.2 421.5C248.7 424.3 284.3 444.7 320 455C355.7 465.3 391.3 465.7 426.8 454C462.3 442.3 497.7 418.7 533.2 405.3C568.7 392 604.3 389 640 401.2C675.7 413.3 711.3 440.7 746.8 443.5C782.3 446.3 817.7 424.7 853.2 425.7C888.7 426.7 924.3 450.3 942.2 462.2L960 474L960 541L942.2 541C924.3 541 888.7 541 853.2 541C817.7 541 782.3 541 746.8 541C711.3 541 675.7 541 640 541C604.3 541 568.7 541 533.2 541C497.7 541 462.3 541 426.8 541C391.3 541 355.7 541 320 541C284.3 541 248.7 541 213.2 541C177.7 541 142.3 541 106.8 541C71.3 541 35.7 541 17.8 541L0 541Z" fill="#78c384"></path><path d="M0 441L17.8 449C35.7 457 71.3 473 106.8 472.2C142.3 471.3 177.7 453.7 213.2 451C248.7 448.3 284.3 460.7 320 464C355.7 467.3 391.3 461.7 426.8 462.3C462.3 463 497.7 470 533.2 465.5C568.7 461 604.3 445 640 446.5C675.7 448 711.3 467 746.8 473.7C782.3 480.3 817.7 474.7 853.2 464.2C888.7 453.7 924.3 438.3 942.2 430.7L960 423L960 541L942.2 541C924.3 541 888.7 541 853.2 541C817.7 541 782.3 541 746.8 541C711.3 541 675.7 541 640 541C604.3 541 568.7 541 533.2 541C497.7 541 462.3 541 426.8 541C391.3 541 355.7 541 320 541C284.3 541 248.7 541 213.2 541C177.7 541 142.3 541 106.8 541C71.3 541 35.7 541 17.8 541L0 541Z" fill="#51b367"></path><path d="M0 493L17.8 489C35.7 485 71.3 477 106.8 479C142.3 481 177.7 493 213.2 499.3C248.7 505.7 284.3 506.3 320 508.3C355.7 510.3 391.3 513.7 426.8 511.7C462.3 509.7 497.7 502.3 533.2 499.8C568.7 497.3 604.3 499.7 640 499.8C675.7 500 711.3 498 746.8 494.8C782.3 491.7 817.7 487.3 853.2 484.7C888.7 482 924.3 481 942.2 480.5L960 480L960 541L942.2 541C924.3 541 888.7 541 853.2 541C817.7 541 782.3 541 746.8 541C711.3 541 675.7 541 640 541C604.3 541 568.7 541 533.2 541C497.7 541 462.3 541 426.8 541C391.3 541 355.7 541 320 541C284.3 541 248.7 541 213.2 541C177.7 541 142.3 541 106.8 541C71.3 541 35.7 541 17.8 541L0 541Z" fill="#16a34a"></path></svg>