<svg id="visual" viewBox="0 0 960 540" width="960" height="540" xmlns="http://www.w3.org/2000/svg" xmlns:xlink="http://www.w3.org/1999/xlink" version="1.1"><rect x="0" y="0" width="960" height="540" fill="#fff"></rect><defs><linearGradient id="grad1_0" x1="43.8%" y1="0%" x2="100%" y2="100%"><stop offset="14.444444444444446%" stop-color="#ffffff" stop-opacity="1"></stop><stop offset="85.55555555555554%" stop-color="#ffffff" stop-opacity="1"></stop></linearGradient></defs><defs><linearGradient id="grad2_0" x1="0%" y1="0%" x2="56.3%" y2="100%"><stop offset="14.444444444444446%" stop-color="#ffffff" stop-opacity="1"></stop><stop offset="85.55555555555554%" stop-color="#ffffff" stop-opacity="1"></stop></linearGradient></defs><g transform="translate(960, 0)"><path d="M0 216C-28.4 194.5 -56.8 172.9 -91 157.6C-125.2 142.3 -165.3 133.2 -187.1 108C-208.9 82.8 -212.4 41.4 -216 0L0 0Z" fill="#16a34a"></path></g><g transform="translate(0, 540)"><path d="M0 -216C31.1 -199.1 62.1 -182.2 96 -166.3C129.9 -150.4 166.6 -135.5 187.1 -108C207.5 -80.5 211.8 -40.2 216 0L0 0Z" fill="#16a34a"></path></g></svg>